<?xml version="1.0" standalone="no"?>
<!DOCTYPE svg PUBLIC "-//W3C//DTD SVG 20010904//EN"
 "http://www.w3.org/TR/2001/REC-SVG-20010904/DTD/svg10.dtd">
<svg version="1.0" xmlns="http://www.w3.org/2000/svg"
 width="250.000000pt" height="253.000000pt" viewBox="0 0 250.000000 253.000000"
 preserveAspectRatio="xMidYMid meet">

<g transform="translate(0.000000,253.000000) scale(0.100000,-0.100000)"
fill="#000000" stroke="none">
<path d="M0 2353 l0 -176 30 41 c17 23 35 42 40 42 6 0 10 6 10 13 0 7 9 17
19 22 10 6 40 23 66 39 89 55 112 59 375 67 135 4 502 7 815 8 692 1 733 -3
849 -86 68 -48 117 -102 141 -152 11 -22 23 -41 26 -41 17 0 55 -188 74 -365
8 -83 20 -175 25 -206 6 -30 11 -91 11 -135 1 -43 5 -113 9 -154 4 -41 7 225
8 593 l2 667 -1250 0 -1250 0 0 -177z"/>
<path d="M790 1985 c0 -6 -91 -356 -135 -520 -19 -72 -35 -136 -35 -143 0 -8
22 -12 69 -12 76 0 73 -3 86 70 14 74 8 70 105 70 l88 0 12 -52 c21 -95 14
-88 91 -88 42 0 69 4 69 11 0 5 -11 49 -24 97 -13 48 -52 196 -87 330 l-62
242 -89 0 c-48 0 -88 -2 -88 -5z m123 -273 c15 -71 27 -134 27 -140 0 -8 -21
-12 -60 -12 -41 0 -60 4 -60 13 0 25 53 267 59 267 4 0 19 -58 34 -128z"/>
<path d="M1412 1933 l3 -58 112 -5 112 -5 -119 -225 c-108 -204 -119 -230
-120 -277 l0 -53 205 0 205 0 0 55 0 55 -125 0 c-69 0 -125 3 -125 8 0 4 23
48 51 97 174 310 199 362 199 414 l0 51 -200 0 -201 0 3 -57z"/>
<path d="M596 1114 c-3 -9 -6 -161 -6 -339 0 -363 -7 -335 81 -335 l49 0 2
271 3 271 58 -263 c32 -145 63 -267 70 -271 19 -12 84 -9 95 5 5 6 34 123 63
260 l54 247 5 -257 5 -258 63 -3 62 -3 0 346 0 346 -102 -3 -103 -3 -46 -228
c-25 -125 -48 -229 -51 -232 -2 -2 -19 71 -37 163 -19 92 -40 197 -48 235
l-15 67 -98 0 c-80 0 -99 -3 -104 -16z"/>
<path d="M1460 1075 l0 -55 70 0 70 0 0 -285 0 -285 23 -5 c13 -4 43 -5 68 -3
l44 3 5 285 5 285 73 0 72 0 0 58 0 57 -215 0 -215 0 0 -55z"/>
<path d="M2486 858 c-18 -473 -68 -607 -265 -705 l-76 -38 -272 -1 c-150 -1
-273 2 -273 7 0 5 -18 9 -40 9 -22 0 -40 -4 -40 -10 0 -14 -1206 -13 -1289 2
-82 14 -143 41 -192 85 l-39 35 0 -121 0 -121 1250 0 1250 0 0 520 c0 286 -2
520 -4 520 -2 0 -7 -82 -10 -182z"/>
</g>
</svg>
